<svg xmlns="http://www.w3.org/2000/svg" viewBox="0 0 24 24" width="96" height="96">
  <path fill="#4285F4" d="M13,3.2 C17.1,3.2 20.3,6.4 20.3,10.5 C20.3,11.8 20,13 19.3,14.1 C19.6,14.5 19.8,14.9 19.9,15.3 C20,15.7 20,16.2 19.9,16.6 C19.8,17 19.6,17.4 19.3,17.7 C19,18 18.7,18.2 18.3,18.3 C18.3,18.4 18.3,18.5 18.3,18.6 C18.3,19.1 18.2,19.6 17.9,20 C17.7,20.4 17.3,20.8 16.9,21 C16.5,21.2 16,21.3 15.5,21.3 C15.4,21.3 15.3,21.3 15.2,21.3 C14.8,21.7 14.3,22 13.8,22.2 C13.2,22.4 12.6,22.4 12,22.4 C11.4,22.4 10.8,22.3 10.2,22.2 C9.7,22 9.2,21.7 8.8,21.3 C8.7,21.3 8.6,21.3 8.5,21.3 C8,21.3 7.5,21.2 7.1,21 C6.7,20.8 6.3,20.4 6.1,20 C5.9,19.6 5.7,19.1 5.7,18.6 C5.7,18.5 5.7,18.4 5.7,18.3 C5.3,18.2 5,18 4.7,17.7 C4.4,17.4 4.2,17 4.1,16.6 C4,16.2 4,15.7 4.1,15.3 C4.2,14.9 4.4,14.5 4.7,14.1 C4,13 3.7,11.8 3.7,10.5 C3.7,6.4 6.9,3.2 11,3.2 C11.6,3.2 12.3,3.2 13,3.2 Z M12,5.2 C9.1,5.2 6.7,7.6 6.7,10.5 C6.7,11.8 7.1,13.1 7.9,14.2 C8,14.4 7.9,14.6 7.8,14.8 C7.6,15 7.4,15.3 7.3,15.7 C7.2,16 7.2,16.3 7.3,16.7 C7.4,17 7.5,17.2 7.6,17.4 C7.7,17.5 7.9,17.6 8.1,17.7 C8.3,17.8 8.4,18 8.3,18.2 C8.2,18.4 8.2,18.5 8.2,18.7 C8.2,19 8.3,19.2 8.4,19.5 C8.5,19.7 8.7,19.9 8.9,20 C9.1,20.1 9.3,20.2 9.5,20.2 C9.7,20.2 9.9,20.1 10.1,20 C10.3,19.9 10.5,20 10.6,20.2 C10.8,20.5 11.1,20.7 11.4,20.9 C11.8,21.1 12.2,21.1 12.6,21.1 C13,21.1 13.4,21 13.8,20.9 C14.1,20.7 14.4,20.5 14.6,20.2 C14.7,20 14.9,19.9 15.1,20 C15.3,20.1 15.5,20.2 15.7,20.2 C15.9,20.2 16.1,20.1 16.3,20 C16.5,19.9 16.7,19.7 16.8,19.5 C16.9,19.3 17,19 17,18.7 C17,18.5 17,18.4 16.9,18.2 C16.8,18 17,17.8 17.2,17.7 C17.4,17.6 17.6,17.5 17.7,17.3 C17.8,17.1 17.9,16.9 18,16.6 C18.1,16.3 18.1,16 18,15.7 C17.9,15.3 17.7,15 17.5,14.8 C17.4,14.6 17.3,14.4 17.4,14.2 C18.2,13.1 18.6,11.8 18.6,10.5 C18.6,7.6 16.2,5.2 13.3,5.2 C12.9,5.2 12.4,5.2 12,5.2 Z" />
  <path fill="#4285F4" d="M11,9.5 C11,8.7 10.3,8 9.5,8 C8.7,8 8,8.7 8,9.5 C8,10.3 8.7,11 9.5,11 C10.3,11 11,10.3 11,9.5 Z" />
  <path fill="#4285F4" d="M16,9.5 C16,8.7 15.3,8 14.5,8 C13.7,8 13,8.7 13,9.5 C13,10.3 13.7,11 14.5,11 C15.3,11 16,10.3 16,9.5 Z" />
  <path fill="#4285F4" d="M11,13.5 C11,12.7 10.3,12 9.5,12 C8.7,12 8,12.7 8,13.5 C8,14.3 8.7,15 9.5,15 C10.3,15 11,14.3 11,13.5 Z" />
  <path fill="#4285F4" d="M16,13.5 C16,12.7 15.3,12 14.5,12 C13.7,12 13,12.7 13,13.5 C13,14.3 13.7,15 14.5,15 C15.3,15 16,14.3 16,13.5 Z" />
</svg> 